<svg xmlns="http://www.w3.org/2000/svg" xmlns:xlink="http://www.w3.org/1999/xlink" height="200" width="400"><polygon points="0,200 0,100 1,101 2,102 3,103 4,104 5,105 6,104 7,103 8,104 9,103 10,102 11,103 12,104 13,105 14,104 15,105 16,106 17,105 18,104 19,103 20,104 21,105 22,104 23,103 24,102 25,103 26,102 27,103 28,102 29,101 30,100 31,101 32,102 33,103 34,104 35,103 36,104 37,103 38,104 39,103 40,102 41,101 42,102 43,103 44,104 45,105 46,106 47,107 48,106 49,107 50,108 51,109 52,108 53,107 54,106 55,105 56,106 57,107 58,108 59,107 60,108 61,107 62,108 63,107 64,108 65,109 66,108 67,109 68,110 69,111 70,110 71,111 72,110 73,109 74,110 75,111 76,112 77,111 78,112 79,111 80,110 81,111 82,110 83,111 84,110 85,109 86,108 87,109 88,110 89,109 90,108 91,109 92,110 93,111 94,110 95,111 96,112 97,113 98,112 99,113 100,114 101,115 102,116 103,115 104,116 105,115 106,114 107,115 108,116 109,117 110,118 111,117 112,118 113,117 114,118 115,119 116,120 117,119 118,120 119,121 120,122 121,121 122,120 123,119 124,118 125,119 126,118 127,119 128,118 129,117 130,118 131,119 132,120 133,119 134,118 135,117 136,116 137,115 138,116 139,117 140,118 141,117 142,118 143,117 144,116 145,117 146,118 147,117 148,118 149,117 150,118 151,117 152,116 153,117 154,118 155,119 156,120 157,119 158,118 159,117 160,118 161,117 162,116 163,117 164,116 165,115 166,116 167,117 168,118 169,119 170,120 171,121 172,122 173,123 174,124 175,125 176,124 177,125 178,124 179,125 180,126 181,125 182,124 183,125 184,126 185,125 186,124 187,125 188,126 189,127 190,126 191,127 192,126 193,125 194,126 195,127 196,126 197,127 198,128 199,129 200,128 201,127 202,126 203,127 204,128 205,127 206,128 207,129 208,130 209,129 210,128 211,127 212,126 213,127 214,128 215,129 216,128 217,127 218,126 219,125 220,124 221,125 222,124 223,125 224,126 225,127 226,128 227,127 228,126 229,125 230,124 231,125 232,124 233,125 234,124 235,123 236,124 237,125 238,126 239,125 240,124 241,123 242,122 243,123 244,122 245,121 246,122 247,121 248,122 249,123 250,122 251,123 252,124 253,123 254,124 255,123 256,124 257,125 258,126 259,127 260,126 261,125 262,124 263,125 264,124 265,123 266,122 267,121 268,120 269,119 270,120 271,121 272,120 273,119 274,120 275,121 276,122 277,123 278,122 279,123 280,124 281,123 282,124 283,125 284,124 285,125 286,124 287,123 288,124 289,123 290,122 291,121 292,120 293,121 294,120 295,121 296,120 297,119 298,120 299,121 300,122 301,121 302,120 303,121 304,122 305,123 306,124 307,123 308,122 309,121 310,120 311,119 312,118 313,119 314,118 315,117 316,118 317,117 318,118 319,119 320,118 321,119 322,120 323,121 324,120 325,119 326,120 327,121 328,120 329,119 330,120 331,119 332,118 333,119 334,118 335,117 336,118 337,119 338,120 339,121 340,120 341,119 342,118 343,119 344,120 345,119 346,120 347,119 348,120 349,121 350,120 351,119 352,120 353,119 354,120 355,119 356,118 357,119 358,120 359,121 360,122 361,121 362,120 363,119 364,120 365,119 366,118 367,117 368,116 369,117 370,118 371,117 372,118 373,119 374,118 375,119 376,120 377,121 378,122 379,121 380,122 381,123 382,122 383,121 384,122 385,121 386,122 387,123 388,122 389,121 390,122 391,123 392,122 393,121 394,122 395,123 396,124 397,125 398,126 399,125 400,(0.2) " style="fill:rgb(47,111,251);stroke:rgb(0,11,151)"></polygon><polygon points="0,200 0,100 1,101 2,102 3,103 4,102 5,101 6,100 7,99 8,100 9,101 10,100 11,99 12,100 13,99 14,98 15,97 16,96 17,97 18,98 19,97 20,96 21,97 22,98 23,97 24,96 25,95 26,94 27,95 28,94 29,95 30,94 31,95 32,96 33,95 34,94 35,95 36,94 37,93 38,94 39,95 40,96 41,97 42,96 43,95 44,96 45,97 46,96 47,95 48,94 49,95 50,94 51,93 52,92 53,91 54,90 55,91 56,92 57,93 58,92 59,93 60,94 61,95 62,94 63,93 64,94 65,95 66,96 67,95 68,94 69,95 70,94 71,95 72,94 73,95 74,94 75,93 76,92 77,91 78,90 79,91 80,92 81,91 82,90 83,89 84,88 85,87 86,88 87,87 88,88 89,87 90,88 91,87 92,88 93,89 94,90 95,89 96,88 97,89 98,90 99,91 100,92 101,93 102,92 103,91 104,92 105,93 106,94 107,95 108,94 109,95 110,96 111,97 112,96 113,97 114,98 115,97 116,98 117,99 118,100 119,101 120,102 121,101 122,100 123,99 124,98 125,99 126,98 127,99 128,98 129,99 130,100 131,99 132,100 133,99 134,98 135,97 136,96 137,97 138,96 139,95 140,96 141,95 142,94 143,95 144,96 145,95 146,96 147,95 148,94 149,95 150,96 151,97 152,96 153,95 154,96 155,95 156,96 157,95 158,96 159,95 160,96 161,97 162,98 163,97 164,96 165,97 166,96 167,97 168,96 169,95 170,96 171,97 172,96 173,95 174,96 175,97 176,98 177,99 178,98 179,99 180,100 181,101 182,102 183,103 184,102 185,103 186,102 187,101 188,100 189,99 190,98 191,97 192,98 193,97 194,98 195,99 196,98 197,97 198,96 199,95 200,96 201,97 202,96 203,95 204,96 205,95 206,94 207,93 208,94 209,95 210,94 211,93 212,92 213,91 214,90 215,91 216,92 217,91 218,90 219,89 220,90 221,91 222,90 223,89 224,90 225,91 226,90 227,91 228,92 229,91 230,92 231,93 232,94 233,95 234,94 235,93 236,94 237,93 238,92 239,93 240,94 241,95 242,96 243,97 244,96 245,95 246,96 247,97 248,96 249,95 250,96 251,97 252,98 253,97 254,96 255,95 256,96 257,95 258,96 259,95 260,96 261,97 262,96 263,97 264,96 265,95 266,94 267,93 268,94 269,93 270,92 271,91 272,92 273,93 274,92 275,91 276,90 277,91 278,90 279,89 280,88 281,89 282,90 283,89 284,90 285,89 286,88 287,87 288,88 289,89 290,88 291,87 292,88 293,89 294,90 295,91 296,90 297,89 298,88 299,87 300,88 301,89 302,88 303,89 304,88 305,89 306,90 307,89 308,88 309,87 310,88 311,89 312,90 313,89 314,88 315,89 316,90 317,89 318,88 319,87 320,86 321,85 322,86 323,87 324,88 325,87 326,86 327,87 328,88 329,87 330,86 331,85 332,86 333,87 334,88 335,89 336,88 337,87 338,86 339,85 340,84 341,83 342,82 343,81 344,82 345,83 346,82 347,81 348,82 349,81 350,80 351,81 352,82 353,81 354,82 355,81 356,82 357,81 358,80 359,81 360,80 361,79 362,80 363,81 364,80 365,79 366,80 367,81 368,80 369,81 370,80 371,79 372,80 373,81 374,80 375,81 376,82 377,81 378,82 379,81 380,80 381,79 382,80 383,79 384,78 385,77 386,76 387,77 388,76 389,77 390,76 391,77 392,78 393,79 394,78 395,79 396,78 397,77 398,76 399,77 400,(0.2) " style="fill:rgb(166,82,3);stroke:rgb(66,0,0)"></polygon><polygon points="0,200 0,100 1,101 2,100 3,101 4,100 5,99 6,98 7,97 8,98 9,97 10,96 11,97 12,96 13,95 14,96 15,97 16,98 17,97 18,96 19,95 20,96 21,95 22,96 23,95 24,96 25,97 26,98 27,99 28,98 29,99 30,98 31,99 32,100 33,101 34,100 35,101 36,100 37,99 38,100 39,99 40,98 41,99 42,98 43,99 44,100 45,101 46,102 47,101 48,100 49,101 50,100 51,101 52,102 53,103 54,102 55,101 56,102 57,103 58,104 59,103 60,102 61,103 62,104 63,103 64,102 65,101 66,102 67,103 68,102 69,101 70,102 71,103 72,102 73,101 74,102 75,101 76,102 77,103 78,104 79,103 80,102 81,103 82,104 83,105 84,106 85,105 86,104 87,105 88,104 89,105 90,106 91,107 92,106 93,107 94,108 95,109 96,108 97,107 98,106 99,105 100,104 101,103 102,102 103,103 104,104 105,105 106,106 107,105 108,106 109,105 110,104 111,105 112,104 113,105 114,104 115,103 116,104 117,103 118,102 119,103 120,102 121,101 122,100 123,99 124,100 125,101 126,100 127,99 128,98 129,99 130,100 131,99 132,98 133,99 134,98 135,97 136,98 137,99 138,100 139,101 140,100 141,99 142,100 143,101 144,100 145,101 146,102 147,101 148,102 149,103 150,102 151,103 152,102 153,101 154,102 155,103 156,104 157,105 158,104 159,103 160,102 161,101 162,100 163,101 164,102 165,101 166,102 167,101 168,102 169,101 170,102 171,103 172,104 173,105 174,106 175,105 176,104 177,105 178,104 179,103 180,102 181,103 182,104 183,103 184,102 185,103 186,104 187,105 188,104 189,103 190,104 191,103 192,102 193,101 194,102 195,101 196,100 197,101 198,102 199,103 200,102 201,101 202,100 203,99 204,98 205,99 206,98 207,99 208,98 209,99 210,98 211,97 212,98 213,97 214,98 215,97 216,98 217,97 218,96 219,97 220,98 221,99 222,100 223,99 224,100 225,101 226,102 227,101 228,102 229,103 230,102 231,103 232,102 233,101 234,102 235,103 236,104 237,105 238,104 239,103 240,104 241,103 242,102 243,103 244,102 245,101 246,100 247,101 248,100 249,101 250,102 251,103 252,102 253,101 254,102 255,101 256,102 257,103 258,104 259,105 260,104 261,103 262,104 263,105 264,106 265,107 266,106 267,105 268,104 269,105 270,104 271,103 272,102 273,103 274,102 275,101 276,100 277,101 278,102 279,101 280,102 281,103 282,102 283,103 284,102 285,103 286,104 287,105 288,106 289,107 290,108 291,109 292,108 293,107 294,106 295,107 296,106 297,105 298,106 299,107 300,106 301,105 302,106 303,107 304,108 305,107 306,106 307,107 308,106 309,105 310,106 311,107 312,106 313,107 314,108 315,107 316,106 317,107 318,108 319,107 320,106 321,105 322,104 323,105 324,104 325,103 326,102 327,103 328,102 329,103 330,104 331,105 332,104 333,103 334,104 335,105 336,106 337,105 338,106 339,105 340,104 341,105 342,104 343,105 344,104 345,105 346,106 347,105 348,104 349,105 350,104 351,105 352,104 353,103 354,104 355,103 356,102 357,103 358,102 359,101 360,102 361,101 362,100 363,101 364,100 365,101 366,100 367,99 368,98 369,97 370,96 371,97 372,96 373,97 374,96 375,97 376,98 377,99 378,100 379,101 380,100 381,101 382,102 383,101 384,102 385,103 386,102 387,101 388,100 389,99 390,98 391,99 392,100 393,101 394,100 395,101 396,100 397,101 398,102 399,101 400,(0.2) " style="fill:rgb(132,43,51);stroke:rgb(32,0,0)"></polygon><polygon points="0,200 0,100 1,101 2,100 3,101 4,102 5,101 6,102 7,103 8,104 9,105 10,104 11,103 12,102 13,103 14,104 15,105 16,106 17,105 18,104 19,103 20,102 21,103 22,104 23,103 24,104 25,103 26,102 27,103 28,104 29,103 30,102 31,103 32,104 33,105 34,106 35,107 36,106 37,107 38,106 39,105 40,104 41,103 42,102 43,101 44,100 45,99 46,98 47,99 48,98 49,97 50,96 51,95 52,94 53,95 54,96 55,97 56,96 57,95 58,94 59,93 60,94 61,93 62,92 63,93 64,92 65,93 66,94 67,93 68,92 69,91 70,90 71,89 72,90 73,89 74,90 75,89 76,88 77,87 78,86 79,85 80,86 81,87 82,88 83,89 84,90 85,91 86,90 87,89 88,90 89,89 90,88 91,89 92,88 93,89 94,88 95,87 96,88 97,87 98,86 99,85 100,86 101,87 102,88 103,87 104,86 105,85 106,86 107,85 108,86 109,87 110,86 111,85 112,84 113,85 114,84 115,85 116,84 117,83 118,84 119,85 120,86 121,85 122,84 123,85 124,86 125,85 126,84 127,85 128,86 129,85 130,86 131,87 132,86 133,87 134,86 135,87 136,86 137,87 138,86 139,87 140,86 141,85 142,84 143,83 144,82 145,83 146,82 147,83 148,84 149,83 150,84 151,83 152,82 153,81 154,80 155,79 156,78 157,77 158,76 159,75 160,76 161,77 162,78 163,79 164,80 165,79 166,78 167,79 168,80 169,81 170,80 171,79 172,78 173,77 174,78 175,77 176,76 177,77 178,78 179,77 180,76 181,77 182,76 183,75 184,74 185,75 186,76 187,75 188,74 189,75 190,76 191,77 192,78 193,79 194,78 195,77 196,78 197,79 198,80 199,79 200,80 201,79 202,80 203,81 204,82 205,83 206,82 207,81 208,80 209,81 210,82 211,81 212,80 213,79 214,78 215,77 216,78 217,77 218,76 219,77 220,78 221,79 222,78 223,79 224,80 225,79 226,78 227,77 228,78 229,79 230,80 231,81 232,80 233,81 234,80 235,79 236,80 237,79 238,80 239,81 240,80 241,79 242,80 243,81 244,80 245,79 246,78 247,77 248,78 249,79 250,80 251,81 252,82 253,83 254,84 255,83 256,84 257,83 258,82 259,81 260,82 261,83 262,82 263,83 264,82 265,83 266,84 267,83 268,84 269,85 270,84 271,83 272,84 273,85 274,86 275,87 276,86 277,85 278,84 279,85 280,84 281,85 282,84 283,83 284,84 285,85 286,84 287,83 288,82 289,81 290,82 291,83 292,84 293,83 294,82 295,81 296,82 297,81 298,80 299,79 300,78 301,77 302,78 303,79 304,78 305,77 306,76 307,75 308,74 309,75 310,76 311,77 312,78 313,79 314,78 315,79 316,78 317,77 318,76 319,77 320,78 321,77 322,76 323,77 324,76 325,77 326,78 327,77 328,76 329,75 330,74 331,73 332,72 333,71 334,72 335,71 336,72 337,73 338,72 339,71 340,72 341,71 342,70 343,69 344,68 345,69 346,68 347,67 348,68 349,67 350,68 351,69 352,68 353,69 354,68 355,67 356,66 357,67 358,66 359,65 360,64 361,65 362,64 363,63 364,64 365,63 366,64 367,63 368,62 369,63 370,64 371,63 372,62 373,61 374,62 375,61 376,62 377,63 378,62 379,61 380,60 381,61 382,60 383,59 384,58 385,57 386,56 387,57 388,58 389,57 390,58 391,57 392,58 393,59 394,58 395,59 396,58 397,57 398,58 399,57 400,(0.2) " style="fill:rgb(144,91,255);stroke:rgb(44,0,155)"></polygon><polygon points="0,200 0,100 1,101 2,100 3,101 4,102 5,103 6,102 7,103 8,104 9,105 10,104 11,105 12,104 13,105 14,106 15,105 16,106 17,105 18,104 19,105 20,106 21,105 22,106 23,105 24,104 25,103 26,102 27,101 28,100 29,101 30,100 31,99 32,98 33,97 34,96 35,97 36,98 37,97 38,98 39,99 40,98 41,97 42,98 43,97 44,96 45,95 46,96 47,95 48,94 49,93 50,92 51,91 52,92 53,91 54,92 55,93 56,94 57,95 58,94 59,93 60,92 61,91 62,90 63,91 64,90 65,91 66,92 67,93 68,94 69,95 70,96 71,95 72,94 73,93 74,94 75,93 76,92 77,91 78,92 79,91 80,90 81,89 82,88 83,89 84,90 85,89 86,88 87,87 88,88 89,87 90,88 91,89 92,88 93,87 94,86 95,85 96,84 97,83 98,84 99,85 100,84 101,83 102,84 103,83 104,82 105,81 106,82 107,81 108,82 109,83 110,84 111,83 112,82 113,83 114,82 115,81 116,80 117,81 118,80 119,79 120,80 121,81 122,82 123,81 124,82 125,83 126,82 127,83 128,82 129,81 130,80 131,81 132,80 133,79 134,78 135,79 136,78 137,77 138,76 139,75 140,76 141,75 142,76 143,75 144,74 145,73 146,72 147,71 148,72 149,73 150,74 151,73 152,72 153,71 154,70 155,71 156,70 157,69 158,70 159,71 160,72 161,71 162,70 163,69 164,70 165,69 166,70 167,69 168,70 169,71 170,70 171,69 172,68 173,67 174,66 175,67 176,68 177,69 178,70 179,69 180,68 181,67 182,68 183,67 184,66 185,65 186,64 187,63 188,64 189,63 190,62 191,61 192,62 193,61 194,62 195,63 196,62 197,61 198,62 199,63 200,64 201,65 202,66 203,67 204,66 205,65 206,66 207,67 208,66 209,65 210,64 211,63 212,64 213,65 214,66 215,65 216,66 217,65 218,64 219,63 220,62 221,63 222,64 223,63 224,62 225,63 226,62 227,61 228,60 229,59 230,60 231,61 232,60 233,61 234,60 235,61 236,62 237,63 238,62 239,61 240,62 241,61 242,62 243,61 244,62 245,63 246,64 247,65 248,64 249,63 250,62 251,61 252,60 253,61 254,60 255,59 256,60 257,61 258,62 259,61 260,60 261,59 262,58 263,57 264,56 265,55 266,54 267,53 268,54 269,53 270,54 271,53 272,52 273,51 274,52 275,53 276,54 277,53 278,54 279,53 280,54 281,53 282,54 283,53 284,52 285,51 286,52 287,53 288,54 289,53 290,54 291,55 292,54 293,55 294,54 295,53 296,54 297,55 298,56 299,55 300,56 301,55 302,56 303,57 304,56 305,55 306,54 307,53 308,54 309,53 310,52 311,53 312,54 313,55 314,56 315,57 316,56 317,55 318,56 319,57 320,56 321,55 322,56 323,57 324,56 325,55 326,56 327,57 328,58 329,59 330,60 331,61 332,62 333,63 334,64 335,65 336,66 337,65 338,64 339,65 340,66 341,65 342,66 343,65 344,66 345,65 346,64 347,65 348,64 349,65 350,66 351,65 352,64 353,65 354,66 355,65 356,64 357,65 358,64 359,65 360,66 361,67 362,68 363,69 364,68 365,69 366,70 367,71 368,72 369,73 370,72 371,71 372,70 373,71 374,70 375,69 376,70 377,71 378,70 379,69 380,70 381,69 382,68 383,67 384,68 385,69 386,70 387,69 388,70 389,71 390,70 391,69 392,70 393,71 394,70 395,71 396,70 397,71 398,72 399,71 400,(0.2) " style="fill:rgb(59,209,73);stroke:rgb(0,109,0)"></polygon><polygon points="0,200 0,100 1,101 2,100 3,99 4,100 5,99 6,100 7,101 8,100 9,101 10,100 11,101 12,102 13,103 14,102 15,103 16,102 17,101 18,102 19,103 20,102 21,101 22,102 23,103 24,104 25,105 26,104 27,103 28,102 29,103 30,102 31,101 32,102 33,101 34,100 35,99 36,98 37,97 38,98 39,99 40,100 41,99 42,100 43,101 44,100 45,101 46,100 47,99 48,100 49,99 50,100 51,99 52,98 53,99 54,100 55,99 56,100 57,99 58,100 59,101 60,102 61,101 62,100 63,99 64,100 65,101 66,102 67,101 68,102 69,101 70,102 71,101 72,100 73,99 74,98 75,99 76,100 77,101 78,100 79,101 80,100 81,101 82,102 83,101 84,102 85,101 86,102 87,103 88,102 89,103 90,102 91,101 92,100 93,101 94,100 95,99 96,98 97,99 98,98 99,99 100,98 101,97 102,98 103,97 104,96 105,95 106,96 107,97 108,96 109,95 110,96 111,97 112,96 113,97 114,98 115,99 116,100 117,101 118,100 119,99 120,98 121,97 122,98 123,99 124,100 125,101 126,102 127,103 128,102 129,101 130,100 131,99 132,100 133,99 134,98 135,97 136,96 137,95 138,96 139,97 140,98 141,99 142,98 143,97 144,96 145,95 146,94 147,95 148,94 149,93 150,92 151,93 152,92 153,93 154,94 155,95 156,96 157,97 158,98 159,99 160,98 161,97 162,98 163,99 164,100 165,101 166,100 167,101 168,100 169,99 170,98 171,97 172,98 173,97 174,96 175,95 176,94 177,95 178,96 179,95 180,94 181,93 182,94 183,93 184,92 185,91 186,92 187,93 188,94 189,93 190,94 191,95 192,96 193,95 194,94 195,93 196,94 197,93 198,94 199,93 200,92 201,93 202,92 203,93 204,94 205,93 206,92 207,91 208,92 209,91 210,90 211,89 212,88 213,87 214,86 215,85 216,86 217,85 218,86 219,87 220,88 221,87 222,88 223,87 224,88 225,89 226,90 227,89 228,90 229,91 230,92 231,91 232,92 233,91 234,92 235,91 236,92 237,93 238,94 239,95 240,96 241,95 242,96 243,97 244,96 245,95 246,94 247,93 248,94 249,93 250,94 251,95 252,96 253,97 254,98 255,99 256,98 257,99 258,98 259,97 260,98 261,97 262,96 263,95 264,94 265,95 266,96 267,95 268,96 269,97 270,98 271,97 272,96 273,97 274,98 275,97 276,96 277,97 278,98 279,99 280,98 281,99 282,98 283,97 284,96 285,95 286,94 287,95 288,96 289,95 290,94 291,93 292,92 293,91 294,90 295,91 296,92 297,93 298,92 299,93 300,92 301,91 302,90 303,91 304,90 305,91 306,92 307,93 308,94 309,93 310,94 311,95 312,94 313,95 314,96 315,95 316,94 317,93 318,94 319,95 320,94 321,95 322,94 323,93 324,94 325,93 326,92 327,93 328,92 329,91 330,92 331,93 332,94 333,93 334,94 335,93 336,94 337,93 338,94 339,95 340,94 341,95 342,96 343,95 344,96 345,95 346,94 347,95 348,96 349,97 350,96 351,95 352,94 353,93 354,92 355,93 356,92 357,91 358,90 359,91 360,90 361,89 362,88 363,89 364,88 365,89 366,88 367,89 368,90 369,89 370,90 371,89 372,90 373,89 374,88 375,89 376,90 377,91 378,90 379,91 380,92 381,93 382,92 383,91 384,90 385,89 386,90 387,89 388,90 389,91 390,92 391,93 392,92 393,91 394,90 395,89 396,90 397,89 398,88 399,89 400,(0.2) " style="fill:rgb(38,134,221);stroke:rgb(0,34,121)"></polygon><polygon points="0,200 0,100 1,99 2,98 3,97 4,98 5,97 6,98 7,97 8,96 9,97 10,98 11,99 12,98 13,97 14,96 15,97 16,98 17,99 18,100 19,101 20,100 21,101 22,100 23,99 24,100 25,101 26,100 27,101 28,102 29,101 30,102 31,103 32,104 33,105 34,106 35,105 36,106 37,105 38,106 39,105 40,104 41,105 42,106 43,105 44,104 45,103 46,104 47,103 48,104 49,103 50,102 51,101 52,100 53,101 54,100 55,101 56,102 57,101 58,100 59,101 60,102 61,103 62,102 63,103 64,104 65,105 66,104 67,105 68,104 69,103 70,104 71,103 72,102 73,101 74,102 75,101 76,102 77,101 78,100 79,99 80,100 81,101 82,100 83,101 84,102 85,101 86,100 87,101 88,102 89,101 90,100 91,99 92,98 93,97 94,98 95,97 96,98 97,97 98,96 99,97 100,96 101,95 102,94 103,95 104,94 105,95 106,94 107,95 108,96 109,97 110,98 111,97 112,98 113,99 114,100 115,99 116,98 117,97 118,96 119,95 120,94 121,93 122,94 123,93 124,94 125,93 126,94 127,95 128,96 129,95 130,96 131,95 132,96 133,95 134,94 135,95 136,96 137,95 138,94 139,95 140,96 141,95 142,96 143,95 144,94 145,93 146,94 147,95 148,96 149,97 150,98 151,97 152,96 153,95 154,96 155,97 156,96 157,95 158,94 159,93 160,92 161,93 162,94 163,93 164,94 165,95 166,96 167,95 168,94 169,95 170,96 171,97 172,96 173,97 174,98 175,97 176,96 177,95 178,96 179,97 180,96 181,97 182,96 183,95 184,96 185,97 186,96 187,97 188,96 189,95 190,94 191,93 192,94 193,93 194,94 195,95 196,94 197,95 198,94 199,95 200,96 201,97 202,98 203,97 204,98 205,97 206,98 207,99 208,98 209,97 210,98 211,99 212,98 213,99 214,98 215,97 216,96 217,97 218,96 219,95 220,96 221,97 222,98 223,99 224,98 225,99 226,98 227,97 228,96 229,95 230,94 231,93 232,92 233,93 234,92 235,91 236,92 237,91 238,90 239,89 240,90 241,91 242,90 243,91 244,90 245,91 246,92 247,91 248,90 249,89 250,90 251,89 252,90 253,89 254,90 255,91 256,90 257,91 258,90 259,91 260,90 261,89 262,90 263,89 264,88 265,89 266,88 267,89 268,90 269,89 270,88 271,89 272,88 273,89 274,88 275,89 276,88 277,89 278,90 279,91 280,92 281,91 282,92 283,91 284,92 285,93 286,92 287,91 288,92 289,91 290,92 291,93 292,92 293,93 294,94 295,93 296,94 297,95 298,94 299,93 300,92 301,91 302,92 303,91 304,90 305,89 306,90 307,89 308,90 309,89 310,90 311,89 312,90 313,91 314,92 315,91 316,90 317,89 318,90 319,89 320,90 321,89 322,88 323,89 324,90 325,91 326,92 327,91 328,92 329,91 330,90 331,91 332,90 333,89 334,88 335,87 336,86 337,87 338,86 339,87 340,88 341,89 342,90 343,91 344,92 345,93 346,94 347,93 348,94 349,95 350,96 351,97 352,96 353,97 354,96 355,97 356,96 357,97 358,96 359,95 360,94 361,93 362,92 363,93 364,94 365,95 366,94 367,93 368,94 369,95 370,94 371,93 372,92 373,91 374,90 375,91 376,90 377,91 378,90 379,91 380,90 381,91 382,90 383,89 384,88 385,89 386,90 387,91 388,92 389,93 390,94 391,95 392,94 393,95 394,96 395,97 396,96 397,95 398,94 399,93 400,(0.2) " style="fill:rgb(154,1,244);stroke:rgb(54,0,144)"></polygon><polygon points="0,200 0,100 1,101 2,100 3,99 4,100 5,101 6,102 7,101 8,102 9,103 10,102 11,103 12,104 13,103 14,104 15,103 16,102 17,101 18,102 19,103 20,104 21,105 22,104 23,105 24,106 25,107 26,106 27,105 28,104 29,103 30,102 31,103 32,104 33,105 34,106 35,105 36,106 37,107 38,106 39,107 40,106 41,107 42,106 43,107 44,106 45,107 46,108 47,107 48,108 49,109 50,110 51,111 52,110 53,109 54,110 55,111 56,112 57,111 58,110 59,111 60,112 61,111 62,110 63,111 64,110 65,111 66,112 67,111 68,112 69,111 70,112 71,113 72,112 73,111 74,110 75,109 76,110 77,109 78,108 79,109 80,110 81,109 82,108 83,107 84,108 85,107 86,106 87,105 88,106 89,105 90,104 91,103 92,104 93,105 94,104 95,105 96,104 97,105 98,104 99,105 100,104 101,105 102,106 103,105 104,104 105,105 106,106 107,105 108,104 109,103 110,102 111,103 112,104 113,105 114,104 115,105 116,106 117,105 118,104 119,105 120,106 121,105 122,106 123,107 124,106 125,107 126,108 127,107 128,106 129,105 130,104 131,103 132,102 133,101 134,102 135,101 136,100 137,101 138,100 139,101 140,100 141,99 142,100 143,99 144,100 145,101 146,100 147,101 148,102 149,103 150,102 151,101 152,102 153,101 154,100 155,99 156,98 157,97 158,96 159,95 160,96 161,95 162,94 163,93 164,92 165,91 166,92 167,93 168,92 169,93 170,94 171,95 172,94 173,93 174,92 175,91 176,90 177,89 178,88 179,89 180,90 181,91 182,90 183,91 184,90 185,89 186,90 187,89 188,88 189,89 190,90 191,91 192,92 193,93 194,92 195,91 196,90 197,91 198,92 199,93 200,94 201,93 202,92 203,91 204,90 205,89 206,88 207,87 208,88 209,87 210,86 211,85 212,86 213,85 214,86 215,87 216,88 217,89 218,90 219,89 220,90 221,91 222,92 223,91 224,90 225,89 226,90 227,91 228,90 229,91 230,92 231,91 232,90 233,89 234,88 235,89 236,90 237,89 238,90 239,89 240,88 241,89 242,90 243,89 244,88 245,89 246,90 247,91 248,90 249,89 250,88 251,87 252,88 253,87 254,88 255,87 256,88 257,87 258,86 259,87 260,88 261,89 262,88 263,89 264,90 265,89 266,88 267,87 268,86 269,87 270,88 271,89 272,90 273,91 274,90 275,91 276,90 277,89 278,88 279,89 280,90 281,91 282,90 283,89 284,88 285,87 286,88 287,89 288,90 289,91 290,92 291,93 292,92 293,91 294,92 295,91 296,92 297,91 298,90 299,89 300,90 301,89 302,90 303,89 304,88 305,87 306,88 307,87 308,88 309,87 310,88 311,89 312,90 313,89 314,88 315,89 316,90 317,91 318,92 319,93 320,92 321,93 322,92 323,93 324,94 325,95 326,96 327,95 328,94 329,95 330,94 331,95 332,94 333,95 334,94 335,95 336,94 337,95 338,94 339,95 340,96 341,95 342,96 343,95 344,94 345,93 346,94 347,93 348,94 349,95 350,96 351,97 352,96 353,97 354,98 355,99 356,98 357,97 358,96 359,97 360,96 361,97 362,98 363,99 364,100 365,101 366,100 367,99 368,98 369,97 370,96 371,97 372,96 373,95 374,96 375,95 376,94 377,93 378,92 379,93 380,92 381,91 382,90 383,89 384,88 385,87 386,88 387,87 388,86 389,87 390,86 391,87 392,88 393,87 394,86 395,85 396,86 397,87 398,88 399,89 400,(0.2) " style="fill:rgb(16,210,179);stroke:rgb(0,110,79)"></polygon><polygon points="0,200 0,100 1,99 2,100 3,99 4,100 5,99 6,100 7,99 8,98 9,97 10,98 11,99 12,100 13,101 14,102 15,103 16,102 17,101 18,100 19,101 20,102 21,101 22,102 23,101 24,102 25,103 26,102 27,103 28,104 29,103 30,102 31,103 32,102 33,103 34,104 35,105 36,106 37,105 38,104 39,103 40,102 41,101 42,100 43,101 44,102 45,101 46,100 47,99 48,98 49,97 50,96 51,95 52,94 53,95 54,94 55,95 56,96 57,97 58,96 59,97 60,96 61,95 62,94 63,95 64,94 65,93 66,94 67,93 68,92 69,93 70,94 71,93 72,92 73,93 74,92 75,93 76,92 77,93 78,92 79,91 80,92 81,91 82,92 83,93 84,94 85,95 86,94 87,93 88,92 89,91 90,92 91,91 92,92 93,91 94,92 95,91 96,92 97,93 98,92 99,91 100,92 101,91 102,92 103,91 104,92 105,93 106,92 107,91 108,92 109,91 110,92 111,93 112,94 113,93 114,92 115,91 116,90 117,91 118,92 119,93 120,92 121,91 122,92 123,91 124,90 125,91 126,90 127,89 128,88 129,87 130,88 131,87 132,88 133,89 134,90 135,89 136,88 137,89 138,88 139,87 140,88 141,87 142,86 143,87 144,86 145,87 146,88 147,89 148,90 149,91 150,90 151,91 152,92 153,93 154,94 155,95 156,96 157,97 158,98 159,97 160,98 161,97 162,96 163,97 164,96 165,95 166,96 167,97 168,98 169,99 170,98 171,97 172,96 173,95 174,96 175,97 176,98 177,99 178,98 179,97 180,98 181,97 182,96 183,95 184,96 185,97 186,96 187,95 188,96 189,97 190,96 191,97 192,96 193,97 194,98 195,99 196,98 197,97 198,96 199,95 200,94 201,95 202,94 203,93 204,92 205,91 206,92 207,91 208,92 209,91 210,90 211,89 212,90 213,89 214,88 215,87 216,86 217,85 218,84 219,85 220,86 221,85 222,84 223,83 224,82 225,81 226,82 227,81 228,80 229,81 230,80 231,81 232,80 233,79 234,80 235,79 236,78 237,77 238,76 239,77 240,76 241,77 242,78 243,77 244,78 245,79 246,80 247,81 248,80 249,79 250,80 251,81 252,80 253,81 254,80 255,79 256,80 257,79 258,80 259,81 260,80 261,79 262,80 263,79 264,78 265,79 266,78 267,79 268,80 269,81 270,80 271,81 272,80 273,81 274,80 275,79 276,78 277,77 278,76 279,77 280,76 281,75 282,74 283,73 284,72 285,73 286,72 287,71 288,72 289,71 290,72 291,73 292,74 293,73 294,74 295,73 296,72 297,71 298,72 299,71 300,72 301,71 302,72 303,73 304,72 305,73 306,72 307,73 308,72 309,71 310,70 311,69 312,68 313,67 314,66 315,67 316,68 317,69 318,68 319,69 320,68 321,69 322,68 323,67 324,66 325,67 326,66 327,65 328,64 329,65 330,66 331,67 332,66 333,67 334,68 335,67 336,68 337,69 338,68 339,69 340,70 341,69 342,70 343,71 344,72 345,73 346,74 347,75 348,74 349,75 350,76 351,77 352,76 353,75 354,74 355,73 356,74 357,75 358,74 359,73 360,74 361,75 362,76 363,75 364,76 365,75 366,74 367,73 368,72 369,73 370,74 371,73 372,72 373,71 374,72 375,71 376,72 377,73 378,74 379,75 380,76 381,75 382,74 383,73 384,74 385,73 386,74 387,73 388,72 389,73 390,72 391,71 392,70 393,71 394,72 395,71 396,72 397,71 398,72 399,71 400,(0.2) " style="fill:rgb(169,24,171);stroke:rgb(69,0,71)"></polygon><polygon points="0,200 0,100 1,99 2,100 3,99 4,98 5,97 6,98 7,97 8,98 9,99 10,100 11,101 12,100 13,101 14,100 15,101 16,100 17,99 18,98 19,99 20,100 21,101 22,102 23,101 24,100 25,99 26,98 27,97 28,96 29,95 30,94 31,95 32,94 33,93 34,92 35,93 36,94 37,93 38,92 39,93 40,92 41,91 42,92 43,91 44,92 45,93 46,92 47,93 48,92 49,91 50,90 51,89 52,88 53,89 54,90 55,89 56,88 57,87 58,86 59,85 60,86 61,87 62,88 63,89 64,88 65,89 66,88 67,89 68,90 69,91 70,90 71,89 72,88 73,89 74,88 75,87 76,88 77,89 78,90 79,89 80,88 81,89 82,90 83,91 84,90 85,89 86,88 87,87 88,86 89,87 90,86 91,87 92,88 93,87 94,88 95,89 96,88 97,87 98,88 99,87 100,88 101,89 102,90 103,89 104,90 105,91 106,90 107,89 108,90 109,89 110,90 111,91 112,90 113,91 114,90 115,89 116,88 117,89 118,90 119,91 120,92 121,93 122,92 123,91 124,92 125,91 126,92 127,93 128,92 129,93 130,92 131,91 132,92 133,93 134,92 135,91 136,92 137,93 138,92 139,91 140,92 141,91 142,90 143,89 144,88 145,87 146,88 147,87 148,86 149,85 150,84 151,83 152,84 153,83 154,82 155,83 156,84 157,85 158,86 159,87 160,88 161,89 162,90 163,91 164,92 165,93 166,94 167,93 168,92 169,93 170,94 171,93 172,94 173,95 174,94 175,93 176,94 177,93 178,94 179,93 180,92 181,93 182,92 183,93 184,92 185,93 186,92 187,93 188,94 189,95 190,94 191,93 192,92 193,93 194,94 195,93 196,94 197,93 198,94 199,93 200,94 201,95 202,96 203,97 204,98 205,97 206,98 207,97 208,96 209,97 210,96 211,95 212,96 213,97 214,96 215,97 216,98 217,99 218,100 219,99 220,98 221,99 222,100 223,101 224,102 225,103 226,104 227,105 228,104 229,105 230,106 231,107 232,106 233,107 234,106 235,107 236,106 237,107 238,106 239,105 240,104 241,103 242,102 243,101 244,100 245,101 246,100 247,99 248,100 249,101 250,100 251,99 252,100 253,99 254,98 255,97 256,96 257,97 258,98 259,99 260,100 261,99 262,100 263,101 264,100 265,99 266,100 267,101 268,102 269,103 270,104 271,103 272,104 273,103 274,104 275,105 276,106 277,107 278,106 279,105 280,104 281,103 282,102 283,101 284,100 285,101 286,102 287,101 288,100 289,101 290,102 291,101 292,100 293,101 294,102 295,101 296,102 297,103 298,104 299,103 300,104 301,105 302,104 303,105 304,106 305,107 306,108 307,107 308,106 309,107 310,106 311,105 312,104 313,105 314,106 315,107 316,108 317,107 318,108 319,107 320,106 321,105 322,104 323,103 324,102 325,101 326,100 327,99 328,100 329,101 330,100 331,101 332,100 333,101 334,100 335,99 336,100 337,101 338,100 339,101 340,100 341,99 342,100 343,101 344,100 345,101 346,102 347,101 348,102 349,103 350,102 351,103 352,102 353,103 354,104 355,105 356,106 357,105 358,106 359,107 360,106 361,105 362,104 363,105 364,104 365,105 366,104 367,105 368,106 369,107 370,108 371,107 372,108 373,109 374,108 375,109 376,110 377,109 378,110 379,109 380,110 381,109 382,108 383,107 384,108 385,107 386,106 387,107 388,108 389,107 390,106 391,107 392,106 393,105 394,104 395,105 396,104 397,103 398,102 399,101 400,(0.2) " style="fill:rgb(180,254,89);stroke:rgb(80,154,0)"></polygon></svg>